<svg width="382" height="84" viewBox="0 0 382 84" fill="none" xmlns="http://www.w3.org/2000/svg">
<path d="M0.761364 15H9.65341V13.4375H2.52273V8.49432H9.08523V6.93182H2.52273V2.01705H9.53977V0.454545H0.761364V15ZM13.5634 0.454545H11.8872V15H13.5634V0.454545ZM21.0583 15H22.7344V8.18182C22.7344 6.58381 23.8992 5.45455 25.206 5.45455C26.4773 5.45455 27.3651 6.28551 27.3651 7.52841V15H29.0697V7.89773C29.0697 6.49148 29.9504 5.45455 31.4844 5.45455C32.6776 5.45455 33.7004 6.08665 33.7004 7.69886V15H35.3765V7.69886C35.3765 5.13494 33.9987 3.94886 32.0526 3.94886C30.4901 3.94886 29.3467 4.66619 28.7856 5.79545H28.6719C28.1322 4.63068 27.1805 3.94886 25.7458 3.94886C24.3254 3.94886 23.2742 4.63068 22.8197 5.79545H22.6776V4.09091H21.0583V15ZM42.415 15.2273C44.6309 15.2273 46.2502 14.1193 46.7616 12.4716L45.1423 12.017C44.7161 13.1534 43.7289 13.7216 42.415 13.7216C40.4477 13.7216 39.0911 12.4503 39.013 10.1136H46.932V9.40341C46.932 5.34091 44.5173 3.94886 42.2445 3.94886C39.29 3.94886 37.3298 6.27841 37.3298 9.63068C37.3298 12.983 39.2616 15.2273 42.415 15.2273ZM39.013 8.66477C39.1266 6.96733 40.3269 5.45455 42.2445 5.45455C44.0627 5.45455 45.2275 6.81818 45.2275 8.66477H39.013ZM48.8817 4.09091V15.7955C48.8817 16.9034 48.4272 17.5284 47.4045 17.5284H47.092V19.0909H47.4329C49.5352 19.0909 50.5579 17.8125 50.5579 15.7955V4.09091H48.8817ZM49.7056 2.27273C50.359 2.27273 50.8988 1.76136 50.8988 1.13636C50.8988 0.511364 50.359 0 49.7056 0C49.0522 0 48.5124 0.511364 48.5124 1.13636C48.5124 1.76136 49.0522 2.27273 49.7056 2.27273ZM57.4597 15.2273C60.4142 15.2273 62.4028 12.983 62.4028 9.60227C62.4028 6.19318 60.4142 3.94886 57.4597 3.94886C54.5051 3.94886 52.5165 6.19318 52.5165 9.60227C52.5165 12.983 54.5051 15.2273 57.4597 15.2273ZM57.4597 13.7216C55.2153 13.7216 54.1926 11.7898 54.1926 9.60227C54.1926 7.41477 55.2153 5.45455 57.4597 5.45455C59.704 5.45455 60.7267 7.41477 60.7267 9.60227C60.7267 11.7898 59.704 13.7216 57.4597 13.7216ZM64.3614 15H66.0376V8.09659C66.0376 6.61932 67.2023 5.53977 68.7933 5.53977C69.2407 5.53977 69.7023 5.625 69.816 5.65341V3.94886C69.6242 3.93466 69.1839 3.92045 68.9353 3.92045C67.6285 3.92045 66.4921 4.65909 66.0944 5.73864H65.9808V4.09091H64.3614V15ZM83.9551 6.53409C83.4295 4.9858 82.2506 3.94886 80.0915 3.94886C77.7903 3.94886 76.0858 5.25568 76.0858 7.10227C76.0858 8.60795 76.9807 9.61648 78.9835 10.0852L80.8017 10.5114C81.9026 10.767 82.421 11.2926 82.421 12.0455C82.421 12.983 81.4267 13.75 79.8642 13.75C78.4935 13.75 77.6341 13.1605 77.3358 11.9886L75.7449 12.3864C76.1355 14.2401 77.6625 15.2273 79.8926 15.2273C82.4281 15.2273 84.154 13.8423 84.154 11.9602C84.154 10.4403 83.2023 9.48153 81.2562 9.00568L79.6369 8.60795C78.3443 8.28835 77.7619 7.85511 77.7619 7.01705C77.7619 6.07955 78.7562 5.39773 80.0915 5.39773C81.5545 5.39773 82.1582 6.20739 82.4494 6.96023L83.9551 6.53409ZM89.2873 15.2557C91.1907 15.2557 92.185 14.233 92.5259 13.5227H92.6112V15H94.2873V7.8125C94.2873 4.34659 91.6452 3.94886 90.2532 3.94886C88.6055 3.94886 86.7305 4.51705 85.8782 6.50568L87.4691 7.07386C87.8384 6.27841 88.712 5.42614 90.31 5.42614C91.8512 5.42614 92.6112 6.2429 92.6112 7.64205V7.69886C92.6112 8.50852 91.7873 8.4375 89.7987 8.69318C87.7745 8.95597 85.5657 9.40341 85.5657 11.9034C85.5657 14.0341 87.2134 15.2557 89.2873 15.2557ZM89.543 13.75C88.2077 13.75 87.2418 13.1534 87.2418 11.9886C87.2418 10.7102 88.4066 10.3125 89.7134 10.142C90.4237 10.0568 92.3271 9.85795 92.6112 9.51705V11.0511C92.6112 12.4148 91.5316 13.75 89.543 13.75ZM96.9739 15H98.5932V13.3239H98.792C99.1614 13.9205 99.8716 15.2273 101.974 15.2273C104.701 15.2273 106.605 13.0398 106.605 9.57386C106.605 6.13636 104.701 3.94886 101.945 3.94886C99.8148 3.94886 99.1614 5.25568 98.792 5.82386H98.65V0.454545H96.9739V15ZM98.6216 9.54545C98.6216 7.10227 99.7011 5.45455 101.747 5.45455C103.877 5.45455 104.928 7.24432 104.928 9.54545C104.928 11.875 103.849 13.7216 101.747 13.7216C99.7295 13.7216 98.6216 12.017 98.6216 9.54545ZM113 15.2273C115.955 15.2273 117.943 12.983 117.943 9.60227C117.943 6.19318 115.955 3.94886 113 3.94886C110.046 3.94886 108.057 6.19318 108.057 9.60227C108.057 12.983 110.046 15.2273 113 15.2273ZM113 13.7216C110.756 13.7216 109.733 11.7898 109.733 9.60227C109.733 7.41477 110.756 5.45455 113 5.45455C115.245 5.45455 116.267 7.41477 116.267 9.60227C116.267 11.7898 115.245 13.7216 113 13.7216ZM119.902 15H121.578V8.09659C121.578 6.61932 122.743 5.53977 124.334 5.53977C124.781 5.53977 125.243 5.625 125.357 5.65341V3.94886C125.165 3.93466 124.725 3.92045 124.476 3.92045C123.169 3.92045 122.033 4.65909 121.635 5.73864H121.521V4.09091H119.902V15ZM136.2 15.2273C138.615 15.2273 140.206 13.75 140.49 11.8182H138.814C138.501 13.0114 137.507 13.7216 136.2 13.7216C134.212 13.7216 132.933 12.0739 132.933 9.54545C132.933 7.07386 134.24 5.45455 136.2 5.45455C137.678 5.45455 138.558 6.36364 138.814 7.35795H140.49C140.206 5.3125 138.473 3.94886 136.172 3.94886C133.217 3.94886 131.257 6.27841 131.257 9.60227C131.257 12.8693 133.132 15.2273 136.2 15.2273ZM146.772 15.2273C149.727 15.2273 151.715 12.983 151.715 9.60227C151.715 6.19318 149.727 3.94886 146.772 3.94886C143.818 3.94886 141.829 6.19318 141.829 9.60227C141.829 12.983 143.818 15.2273 146.772 15.2273ZM146.772 13.7216C144.528 13.7216 143.505 11.7898 143.505 9.60227C143.505 7.41477 144.528 5.45455 146.772 5.45455C149.016 5.45455 150.039 7.41477 150.039 9.60227C150.039 11.7898 149.016 13.7216 146.772 13.7216ZM155.35 8.4375C155.35 6.53409 156.529 5.45455 158.134 5.45455C159.69 5.45455 160.634 6.47017 160.634 8.18182V15H162.31V8.06818C162.31 5.28409 160.826 3.94886 158.617 3.94886C156.969 3.94886 155.947 4.6875 155.435 5.79545H155.293V4.09091H153.674V15H155.35V8.4375ZM171.474 0.454545H169.798V15H171.474V0.454545ZM177.154 15.2557C179.058 15.2557 180.052 14.233 180.393 13.5227H180.478V15H182.154V7.8125C182.154 4.34659 179.512 3.94886 178.12 3.94886C176.473 3.94886 174.598 4.51705 173.745 6.50568L175.336 7.07386C175.706 6.27841 176.579 5.42614 178.177 5.42614C179.718 5.42614 180.478 6.2429 180.478 7.64205V7.69886C180.478 8.50852 179.654 8.4375 177.666 8.69318C175.642 8.95597 173.433 9.40341 173.433 11.9034C173.433 14.0341 175.081 15.2557 177.154 15.2557ZM177.41 13.75C176.075 13.75 175.109 13.1534 175.109 11.9886C175.109 10.7102 176.274 10.3125 177.581 10.142C178.291 10.0568 180.194 9.85795 180.478 9.51705V11.0511C180.478 12.4148 179.399 13.75 177.41 13.75ZM189.639 19.0909H191.315V13.3239H191.457C191.826 13.9205 192.537 15.2273 194.639 15.2273C197.366 15.2273 199.269 13.0398 199.269 9.57386C199.269 6.13636 197.366 3.94886 194.61 3.94886C192.48 3.94886 191.826 5.25568 191.457 5.82386H191.258V4.09091H189.639V19.0909ZM191.287 9.54545C191.287 7.10227 192.366 5.45455 194.412 5.45455C196.542 5.45455 197.593 7.24432 197.593 9.54545C197.593 11.875 196.514 13.7216 194.412 13.7216C192.394 13.7216 191.287 12.017 191.287 9.54545ZM208.101 10.5398C208.101 12.5852 206.539 13.5227 205.289 13.5227C203.897 13.5227 202.902 12.5 202.902 10.9091V4.09091H201.226V11.0227C201.226 13.8068 202.704 15.142 204.749 15.142C206.397 15.142 207.476 14.2614 207.988 13.1534H208.101V15H209.777V4.09091H208.101V10.5398ZM212.247 15H213.924V8.09659C213.924 6.61932 215.088 5.53977 216.679 5.53977C217.127 5.53977 217.588 5.625 217.702 5.65341V3.94886C217.51 3.93466 217.07 3.92045 216.821 3.92045C215.514 3.92045 214.378 4.65909 213.98 5.73864H213.867V4.09091H212.247V15ZM222.299 15.2557C224.202 15.2557 225.197 14.233 225.538 13.5227H225.623V15H227.299V7.8125C227.299 4.34659 224.657 3.94886 223.265 3.94886C221.617 3.94886 219.742 4.51705 218.89 6.50568L220.481 7.07386C220.85 6.27841 221.724 5.42614 223.322 5.42614C224.863 5.42614 225.623 6.2429 225.623 7.64205V7.69886C225.623 8.50852 224.799 8.4375 222.81 8.69318C220.786 8.95597 218.577 9.40341 218.577 11.9034C218.577 14.0341 220.225 15.2557 222.299 15.2557ZM222.555 13.75C221.219 13.75 220.254 13.1534 220.254 11.9886C220.254 10.7102 221.418 10.3125 222.725 10.142C223.435 10.0568 225.339 9.85795 225.623 9.51705V11.0511C225.623 12.4148 224.543 13.75 222.555 13.75ZM235.011 15H236.63V13.3239H236.829C237.198 13.9205 237.908 15.2273 240.011 15.2273C242.738 15.2273 244.641 13.0398 244.641 9.57386C244.641 6.13636 242.738 3.94886 239.982 3.94886C237.851 3.94886 237.198 5.25568 236.829 5.82386H236.687V0.454545H235.011V15ZM236.658 9.54545C236.658 7.10227 237.738 5.45455 239.783 5.45455C241.914 5.45455 242.965 7.24432 242.965 9.54545C242.965 11.875 241.886 13.7216 239.783 13.7216C237.766 13.7216 236.658 12.017 236.658 9.54545ZM253.48 10.5398C253.48 12.5852 251.918 13.5227 250.668 13.5227C249.276 13.5227 248.281 12.5 248.281 10.9091V4.09091H246.605V11.0227C246.605 13.8068 248.082 15.142 250.128 15.142C251.776 15.142 252.855 14.2614 253.367 13.1534H253.48V15H255.156V4.09091H253.48V10.5398ZM262.2 15.2273C264.416 15.2273 266.035 14.1193 266.547 12.4716L264.927 12.017C264.501 13.1534 263.514 13.7216 262.2 13.7216C260.233 13.7216 258.876 12.4503 258.798 10.1136H266.717V9.40341C266.717 5.34091 264.302 3.94886 262.03 3.94886C259.075 3.94886 257.115 6.27841 257.115 9.63068C257.115 12.983 259.047 15.2273 262.2 15.2273ZM258.798 8.66477C258.912 6.96733 260.112 5.45455 262.03 5.45455C263.848 5.45455 265.013 6.81818 265.013 8.66477H258.798ZM270.343 8.4375C270.343 6.53409 271.522 5.45455 273.127 5.45455C274.683 5.45455 275.627 6.47017 275.627 8.18182V15H277.303V8.06818C277.303 5.28409 275.819 3.94886 273.61 3.94886C271.962 3.94886 270.94 4.6875 270.428 5.79545H270.286V4.09091H268.667V15H270.343V8.4375ZM282.976 15.2557C284.88 15.2557 285.874 14.233 286.215 13.5227H286.3V15H287.976V7.8125C287.976 4.34659 285.334 3.94886 283.942 3.94886C282.295 3.94886 280.42 4.51705 279.567 6.50568L281.158 7.07386C281.527 6.27841 282.401 5.42614 283.999 5.42614C285.54 5.42614 286.3 6.2429 286.3 7.64205V7.69886C286.3 8.50852 285.476 8.4375 283.488 8.69318C281.464 8.95597 279.255 9.40341 279.255 11.9034C279.255 14.0341 280.902 15.2557 282.976 15.2557ZM283.232 13.75C281.897 13.75 280.931 13.1534 280.931 11.9886C280.931 10.7102 282.096 10.3125 283.402 10.142C284.113 10.0568 286.016 9.85795 286.3 9.51705V11.0511C286.3 12.4148 285.221 13.75 283.232 13.75ZM299.892 15.2273C302.847 15.2273 304.836 12.983 304.836 9.60227C304.836 6.19318 302.847 3.94886 299.892 3.94886C296.938 3.94886 294.949 6.19318 294.949 9.60227C294.949 12.983 296.938 15.2273 299.892 15.2273ZM299.892 13.7216C297.648 13.7216 296.625 11.7898 296.625 9.60227C296.625 7.41477 297.648 5.45455 299.892 5.45455C302.137 5.45455 303.16 7.41477 303.16 9.60227C303.16 11.7898 302.137 13.7216 299.892 13.7216ZM308.47 8.4375C308.47 6.53409 309.649 5.45455 311.254 5.45455C312.81 5.45455 313.754 6.47017 313.754 8.18182V15H315.431V8.06818C315.431 5.28409 313.946 3.94886 311.737 3.94886C310.09 3.94886 309.067 4.6875 308.556 5.79545H308.414V4.09091H306.794V15H308.47V8.4375ZM322.013 15.2273C324.115 15.2273 324.825 13.9205 325.195 13.3239H325.393V15H327.013V0.454545H325.337V5.82386H325.195C324.825 5.25568 324.172 3.94886 322.041 3.94886C319.286 3.94886 317.382 6.13636 317.382 9.57386C317.382 13.0398 319.286 15.2273 322.013 15.2273ZM322.24 13.7216C320.138 13.7216 319.058 11.875 319.058 9.54545C319.058 7.24432 320.109 5.45455 322.24 5.45455C324.286 5.45455 325.365 7.10227 325.365 9.54545C325.365 12.017 324.257 13.7216 322.24 13.7216ZM332.926 15.2557C334.829 15.2557 335.823 14.233 336.164 13.5227H336.249V15H337.926V7.8125C337.926 4.34659 335.284 3.94886 333.891 3.94886C332.244 3.94886 330.369 4.51705 329.516 6.50568L331.107 7.07386C331.477 6.27841 332.35 5.42614 333.948 5.42614C335.489 5.42614 336.249 6.2429 336.249 7.64205V7.69886C336.249 8.50852 335.426 8.4375 333.437 8.69318C331.413 8.95597 329.204 9.40341 329.204 11.9034C329.204 14.0341 330.852 15.2557 332.926 15.2557ZM333.181 13.75C331.846 13.75 330.88 13.1534 330.88 11.9886C330.88 10.7102 332.045 10.3125 333.352 10.142C334.062 10.0568 335.965 9.85795 336.249 9.51705V11.0511C336.249 12.4148 335.17 13.75 333.181 13.75ZM341.606 15.1136C342.31 15.1136 342.885 14.5384 342.885 13.8352C342.885 13.1321 342.31 12.5568 341.606 12.5568C340.903 12.5568 340.328 13.1321 340.328 13.8352C340.328 14.5384 340.903 15.1136 341.606 15.1136ZM351.142 0.454545H349.295L354.636 15H356.454L361.795 0.454545H359.948L355.63 12.6989H355.46L351.142 0.454545ZM366.792 15.2273C369.007 15.2273 370.627 14.1193 371.138 12.4716L369.519 12.017C369.093 13.1534 368.105 13.7216 366.792 13.7216C364.824 13.7216 363.468 12.4503 363.39 10.1136H371.309V9.40341C371.309 5.34091 368.894 3.94886 366.621 3.94886C363.667 3.94886 361.706 6.27841 361.706 9.63068C361.706 12.983 363.638 15.2273 366.792 15.2273ZM363.39 8.66477C363.503 6.96733 364.703 5.45455 366.621 5.45455C368.439 5.45455 369.604 6.81818 369.604 8.66477H363.39ZM374.934 8.4375C374.934 6.53409 376.113 5.45455 377.719 5.45455C379.274 5.45455 380.219 6.47017 380.219 8.18182V15H381.895V8.06818C381.895 5.28409 380.41 3.94886 378.201 3.94886C376.554 3.94886 375.531 4.6875 375.02 5.79545H374.878V4.09091H373.258V15H374.934V8.4375ZM3.74432 47.2557C5.64773 47.2557 6.64205 46.233 6.98295 45.5227H7.06818V47H8.74432V39.8125C8.74432 36.3466 6.10227 35.9489 4.71023 35.9489C3.0625 35.9489 1.1875 36.517 0.335227 38.5057L1.92614 39.0739C2.29545 38.2784 3.16903 37.4261 4.76705 37.4261C6.30824 37.4261 7.06818 38.2429 7.06818 39.642V39.6989C7.06818 40.5085 6.24432 40.4375 4.25568 40.6932C2.23153 40.956 0.0227273 41.4034 0.0227273 43.9034C0.0227273 46.0341 1.67045 47.2557 3.74432 47.2557ZM4 45.75C2.66477 45.75 1.69886 45.1534 1.69886 43.9886C1.69886 42.7102 2.86364 42.3125 4.17045 42.142C4.88068 42.0568 6.78409 41.858 7.06818 41.517V43.0511C7.06818 44.4148 5.98864 45.75 4 45.75ZM20.3479 47.2273C22.4502 47.2273 23.1604 45.9205 23.5298 45.3239H23.7286V47H25.3479V32.4545H23.6718V37.8239H23.5298C23.1604 37.2557 22.507 35.9489 20.3763 35.9489C17.6207 35.9489 15.7173 38.1364 15.7173 41.5739C15.7173 45.0398 17.6207 47.2273 20.3479 47.2273ZM20.5752 45.7216C18.4729 45.7216 17.3934 43.875 17.3934 41.5455C17.3934 39.2443 18.4445 37.4545 20.5752 37.4545C22.6207 37.4545 23.7002 39.1023 23.7002 41.5455C23.7002 44.017 22.5923 45.7216 20.5752 45.7216ZM28.0505 47H29.7266V36.0909H28.0505V47ZM28.9028 34.2727C29.5562 34.2727 30.096 33.7614 30.096 33.1364C30.096 32.5114 29.5562 32 28.9028 32C28.2494 32 27.7096 32.5114 27.7096 33.1364C27.7096 33.7614 28.2494 34.2727 28.9028 34.2727ZM39.9239 38.5341C39.3983 36.9858 38.2193 35.9489 36.0602 35.9489C33.7591 35.9489 32.0545 37.2557 32.0545 39.1023C32.0545 40.608 32.9494 41.6165 34.9523 42.0852L36.7705 42.5114C37.8713 42.767 38.3898 43.2926 38.3898 44.0455C38.3898 44.983 37.3955 45.75 35.833 45.75C34.4622 45.75 33.6028 45.1605 33.3045 43.9886L31.7136 44.3864C32.1043 46.2401 33.6313 47.2273 35.8614 47.2273C38.3969 47.2273 40.1227 45.8423 40.1227 43.9602C40.1227 42.4403 39.171 41.4815 37.225 41.0057L35.6057 40.608C34.3131 40.2884 33.7307 39.8551 33.7307 39.017C33.7307 38.0795 34.725 37.3977 36.0602 37.3977C37.5233 37.3977 38.127 38.2074 38.4182 38.9602L39.9239 38.5341ZM46.9038 36.0909H44.4606V34.983C44.4606 33.9034 44.9151 33.3352 46.0231 33.3352C46.506 33.3352 46.7901 33.4489 46.9606 33.5057L47.4435 32.0568C47.1879 31.9432 46.6765 31.7727 45.8526 31.7727C44.2901 31.7727 42.7844 32.7102 42.7844 34.5852V36.0909H41.0231V37.5114H42.7844V47H44.4606V37.5114H46.9038V36.0909ZM48.6528 47H50.329V40.0966C50.329 38.6193 51.4938 37.5398 53.0847 37.5398C53.5321 37.5398 53.9938 37.625 54.1074 37.6534V35.9489C53.9156 35.9347 53.4753 35.9205 53.2267 35.9205C51.9199 35.9205 50.7835 36.6591 50.3858 37.7386H50.2722V36.0909H48.6528V47ZM62.3692 42.5398C62.3692 44.5852 60.8067 45.5227 59.5567 45.5227C58.1647 45.5227 57.1704 44.5 57.1704 42.9091V36.0909H55.4942V43.0227C55.4942 45.8068 56.9715 47.142 59.017 47.142C60.6647 47.142 61.7442 46.2614 62.2556 45.1534H62.3692V47H64.0454V36.0909H62.3692V42.5398ZM71.2597 36.0909H68.9301V33.4773H67.254V36.0909H65.6062V37.5114H67.254V44.3295C67.254 46.233 68.7881 47.142 70.2085 47.142C70.8335 47.142 71.2312 47.0284 71.4585 46.9432L71.1176 45.4375C70.9756 45.4659 70.7483 45.5227 70.379 45.5227C69.6403 45.5227 68.9301 45.2955 68.9301 43.875V37.5114H71.2597V36.0909ZM76.3912 47.2557C78.2946 47.2557 79.2889 46.233 79.6298 45.5227H79.7151V47H81.3912V39.8125C81.3912 36.3466 78.7491 35.9489 77.3571 35.9489C75.7094 35.9489 73.8344 36.517 72.9821 38.5057L74.573 39.0739C74.9423 38.2784 75.8159 37.4261 77.4139 37.4261C78.9551 37.4261 79.7151 38.2429 79.7151 39.642V39.6989C79.7151 40.5085 78.8912 40.4375 76.9026 40.6932C74.8784 40.956 72.6696 41.4034 72.6696 43.9034C72.6696 46.0341 74.3173 47.2557 76.3912 47.2557ZM76.6469 45.75C75.3116 45.75 74.3457 45.1534 74.3457 43.9886C74.3457 42.7102 75.5105 42.3125 76.8173 42.142C77.5276 42.0568 79.431 41.858 79.7151 41.517V43.0511C79.7151 44.4148 78.6355 45.75 76.6469 45.75ZM83.8505 47H85.5266V40.0966C85.5266 38.6193 86.6914 37.5398 88.2823 37.5398C88.7298 37.5398 89.1914 37.625 89.305 37.6534V35.9489C89.1133 35.9347 88.6729 35.9205 88.4244 35.9205C87.1175 35.9205 85.9812 36.6591 85.5835 37.7386H85.4698V36.0909H83.8505V47ZM100.149 47.2273C102.563 47.2273 104.154 45.75 104.438 43.8182H102.762C102.45 45.0114 101.456 45.7216 100.149 45.7216C98.1601 45.7216 96.8817 44.0739 96.8817 41.5455C96.8817 39.0739 98.1885 37.4545 100.149 37.4545C101.626 37.4545 102.507 38.3636 102.762 39.358H104.438C104.154 37.3125 102.421 35.9489 100.12 35.9489C97.1658 35.9489 95.2055 38.2784 95.2055 41.6023C95.2055 44.8693 97.0805 47.2273 100.149 47.2273ZM110.721 47.2273C113.675 47.2273 115.664 44.983 115.664 41.6023C115.664 38.1932 113.675 35.9489 110.721 35.9489C107.766 35.9489 105.777 38.1932 105.777 41.6023C105.777 44.983 107.766 47.2273 110.721 47.2273ZM110.721 45.7216C108.476 45.7216 107.454 43.7898 107.454 41.6023C107.454 39.4148 108.476 37.4545 110.721 37.4545C112.965 37.4545 113.988 39.4148 113.988 41.6023C113.988 43.7898 112.965 45.7216 110.721 45.7216ZM119.299 40.4375C119.299 38.5341 120.477 37.4545 122.083 37.4545C123.638 37.4545 124.583 38.4702 124.583 40.1818V47H126.259V40.0682C126.259 37.2841 124.774 35.9489 122.566 35.9489C120.918 35.9489 119.895 36.6875 119.384 37.7955H119.242V36.0909H117.622V47H119.299V40.4375ZM138.491 36.0909H136.161V33.4773H134.485V36.0909H132.837V37.5114H134.485V44.3295C134.485 46.233 136.019 47.142 137.44 47.142C138.065 47.142 138.462 47.0284 138.69 46.9432L138.349 45.4375C138.207 45.4659 137.98 45.5227 137.61 45.5227C136.872 45.5227 136.161 45.2955 136.161 43.875V37.5114H138.491V36.0909ZM147.287 42.5398C147.287 44.5852 145.725 45.5227 144.475 45.5227C143.083 45.5227 142.088 44.5 142.088 42.9091V36.0909H140.412V43.0227C140.412 45.8068 141.889 47.142 143.935 47.142C145.583 47.142 146.662 46.2614 147.174 45.1534H147.287V47H148.963V36.0909H147.287V42.5398ZM159.161 38.5341C158.635 36.9858 157.456 35.9489 155.297 35.9489C152.996 35.9489 151.291 37.2557 151.291 39.1023C151.291 40.608 152.186 41.6165 154.189 42.0852L156.007 42.5114C157.108 42.767 157.626 43.2926 157.626 44.0455C157.626 44.983 156.632 45.75 155.07 45.75C153.699 45.75 152.84 45.1605 152.541 43.9886L150.95 44.3864C151.341 46.2401 152.868 47.2273 155.098 47.2273C157.634 47.2273 159.359 45.8423 159.359 43.9602C159.359 42.4403 158.408 41.4815 156.462 41.0057L154.842 40.608C153.55 40.2884 152.967 39.8551 152.967 39.017C152.967 38.0795 153.962 37.3977 155.297 37.3977C156.76 37.3977 157.364 38.2074 157.655 38.9602L159.161 38.5341ZM170.739 47.2273C173.154 47.2273 174.745 45.75 175.029 43.8182H173.353C173.04 45.0114 172.046 45.7216 170.739 45.7216C168.751 45.7216 167.472 44.0739 167.472 41.5455C167.472 39.0739 168.779 37.4545 170.739 37.4545C172.217 37.4545 173.097 38.3636 173.353 39.358H175.029C174.745 37.3125 173.012 35.9489 170.711 35.9489C167.756 35.9489 165.796 38.2784 165.796 41.6023C165.796 44.8693 167.671 47.2273 170.739 47.2273ZM181.311 47.2273C184.266 47.2273 186.254 44.983 186.254 41.6023C186.254 38.1932 184.266 35.9489 181.311 35.9489C178.357 35.9489 176.368 38.1932 176.368 41.6023C176.368 44.983 178.357 47.2273 181.311 47.2273ZM181.311 45.7216C179.067 45.7216 178.044 43.7898 178.044 41.6023C178.044 39.4148 179.067 37.4545 181.311 37.4545C183.556 37.4545 184.578 39.4148 184.578 41.6023C184.578 43.7898 183.556 45.7216 181.311 45.7216ZM188.213 47H189.889V40.1818C189.889 38.5838 191.054 37.4545 192.361 37.4545C193.632 37.4545 194.52 38.2855 194.52 39.5284V47H196.224V39.8977C196.224 38.4915 197.105 37.4545 198.639 37.4545C199.832 37.4545 200.855 38.0866 200.855 39.6989V47H202.531V39.6989C202.531 37.1349 201.153 35.9489 199.207 35.9489C197.645 35.9489 196.501 36.6662 195.94 37.7955H195.827C195.287 36.6307 194.335 35.9489 192.901 35.9489C191.48 35.9489 190.429 36.6307 189.974 37.7955H189.832V36.0909H188.213V47ZM204.996 51.0909H206.672V45.3239H206.814C207.183 45.9205 207.894 47.2273 209.996 47.2273C212.723 47.2273 214.626 45.0398 214.626 41.5739C214.626 38.1364 212.723 35.9489 209.967 35.9489C207.837 35.9489 207.183 37.2557 206.814 37.8239H206.615V36.0909H204.996V51.0909ZM206.644 41.5455C206.644 39.1023 207.723 37.4545 209.769 37.4545C211.899 37.4545 212.95 39.2443 212.95 41.5455C212.95 43.875 211.871 45.7216 209.769 45.7216C207.751 45.7216 206.644 44.017 206.644 41.5455ZM219.794 47.2557C221.697 47.2557 222.691 46.233 223.032 45.5227H223.117V47H224.794V39.8125C224.794 36.3466 222.151 35.9489 220.759 35.9489C219.112 35.9489 217.237 36.517 216.384 38.5057L217.975 39.0739C218.345 38.2784 219.218 37.4261 220.816 37.4261C222.357 37.4261 223.117 38.2429 223.117 39.642V39.6989C223.117 40.5085 222.294 40.4375 220.305 40.6932C218.281 40.956 216.072 41.4034 216.072 43.9034C216.072 46.0341 217.72 47.2557 219.794 47.2557ZM220.049 45.75C218.714 45.75 217.748 45.1534 217.748 43.9886C217.748 42.7102 218.913 42.3125 220.22 42.142C220.93 42.0568 222.833 41.858 223.117 41.517V43.0511C223.117 44.4148 222.038 45.75 220.049 45.75ZM234.98 38.5341C234.455 36.9858 233.276 35.9489 231.116 35.9489C228.815 35.9489 227.111 37.2557 227.111 39.1023C227.111 40.608 228.006 41.6165 230.009 42.0852L231.827 42.5114C232.928 42.767 233.446 43.2926 233.446 44.0455C233.446 44.983 232.452 45.75 230.889 45.75C229.518 45.75 228.659 45.1605 228.361 43.9886L226.77 44.3864C227.161 46.2401 228.688 47.2273 230.918 47.2273C233.453 47.2273 235.179 45.8423 235.179 43.9602C235.179 42.4403 234.227 41.4815 232.281 41.0057L230.662 40.608C229.369 40.2884 228.787 39.8551 228.787 39.017C228.787 38.0795 229.781 37.3977 231.116 37.3977C232.58 37.3977 233.183 38.2074 233.474 38.9602L234.98 38.5341ZM246.246 47.2273C248.349 47.2273 249.059 45.9205 249.428 45.3239H249.627V47H251.246V32.4545H249.57V37.8239H249.428C249.059 37.2557 248.405 35.9489 246.275 35.9489C243.519 35.9489 241.616 38.1364 241.616 41.5739C241.616 45.0398 243.519 47.2273 246.246 47.2273ZM246.474 45.7216C244.371 45.7216 243.292 43.875 243.292 41.5455C243.292 39.2443 244.343 37.4545 246.474 37.4545C248.519 37.4545 249.599 39.1023 249.599 41.5455C249.599 44.017 248.491 45.7216 246.474 45.7216ZM258.523 47.2273C260.739 47.2273 262.358 46.1193 262.869 44.4716L261.25 44.017C260.824 45.1534 259.837 45.7216 258.523 45.7216C256.555 45.7216 255.199 44.4503 255.121 42.1136H263.04V41.4034C263.04 37.3409 260.625 35.9489 258.352 35.9489C255.398 35.9489 253.438 38.2784 253.438 41.6307C253.438 44.983 255.369 47.2273 258.523 47.2273ZM255.121 40.6648C255.234 38.9673 256.435 37.4545 258.352 37.4545C260.171 37.4545 261.335 38.8182 261.335 40.6648H255.121ZM276.89 42.5398C276.89 44.5852 275.327 45.5227 274.077 45.5227C272.685 45.5227 271.691 44.5 271.691 42.9091V36.0909H270.015V43.0227C270.015 45.8068 271.492 47.142 273.537 47.142C275.185 47.142 276.265 46.2614 276.776 45.1534H276.89V47H278.566V36.0909H276.89V42.5398ZM282.712 40.4375C282.712 38.5341 283.891 37.4545 285.496 37.4545C287.051 37.4545 287.996 38.4702 287.996 40.1818V47H289.672V40.0682C289.672 37.2841 288.188 35.9489 285.979 35.9489C284.331 35.9489 283.308 36.6875 282.797 37.7955H282.655V36.0909H281.036V47H282.712V40.4375ZM295.345 47.2557C297.248 47.2557 298.243 46.233 298.584 45.5227H298.669V47H300.345V39.8125C300.345 36.3466 297.703 35.9489 296.311 35.9489C294.663 35.9489 292.788 36.517 291.936 38.5057L293.527 39.0739C293.896 38.2784 294.77 37.4261 296.368 37.4261C297.909 37.4261 298.669 38.2429 298.669 39.642V39.6989C298.669 40.5085 297.845 40.4375 295.856 40.6932C293.832 40.956 291.623 41.4034 291.623 43.9034C291.623 46.0341 293.271 47.2557 295.345 47.2557ZM295.601 45.75C294.266 45.75 293.3 45.1534 293.3 43.9886C293.3 42.7102 294.464 42.3125 295.771 42.142C296.481 42.0568 298.385 41.858 298.669 41.517V43.0511C298.669 44.4148 297.589 45.75 295.601 45.75ZM307.829 51.0909H309.506V45.3239H309.648C310.017 45.9205 310.727 47.2273 312.829 47.2273C315.557 47.2273 317.46 45.0398 317.46 41.5739C317.46 38.1364 315.557 35.9489 312.801 35.9489C310.67 35.9489 310.017 37.2557 309.648 37.8239H309.449V36.0909H307.829V51.0909ZM309.477 41.5455C309.477 39.1023 310.557 37.4545 312.602 37.4545C314.733 37.4545 315.784 39.2443 315.784 41.5455C315.784 43.875 314.704 45.7216 312.602 45.7216C310.585 45.7216 309.477 44.017 309.477 41.5455ZM319.417 47H321.093V36.0909H319.417V47ZM320.269 34.2727C320.923 34.2727 321.462 33.7614 321.462 33.1364C321.462 32.5114 320.923 32 320.269 32C319.616 32 319.076 32.5114 319.076 33.1364C319.076 33.7614 319.616 34.2727 320.269 34.2727ZM323.25 47H331.802V45.4375H325.58V45.3239L331.603 37.4261V36.0909H323.449V37.6534H329.444V37.767L323.25 45.7216V47ZM333.471 47H342.022V45.4375H335.8V45.3239L341.823 37.4261V36.0909H333.67V37.6534H339.664V37.767L333.471 45.7216V47ZM347.214 47.2557C349.117 47.2557 350.112 46.233 350.452 45.5227H350.538V47H352.214V39.8125C352.214 36.3466 349.572 35.9489 348.18 35.9489C346.532 35.9489 344.657 36.517 343.805 38.5057L345.396 39.0739C345.765 38.2784 346.639 37.4261 348.237 37.4261C349.778 37.4261 350.538 38.2429 350.538 39.642V39.6989C350.538 40.5085 349.714 40.4375 347.725 40.6932C345.701 40.956 343.492 41.4034 343.492 43.9034C343.492 46.0341 345.14 47.2557 347.214 47.2557ZM347.47 45.75C346.134 45.75 345.168 45.1534 345.168 43.9886C345.168 42.7102 346.333 42.3125 347.64 42.142C348.35 42.0568 350.254 41.858 350.538 41.517V43.0511C350.538 44.4148 349.458 45.75 347.47 45.75ZM0.534091 83.0909H2.21023V77.3239H2.35227C2.72159 77.9205 3.43182 79.2273 5.53409 79.2273C8.26136 79.2273 10.1648 77.0398 10.1648 73.5739C10.1648 70.1364 8.26136 67.9489 5.50568 67.9489C3.375 67.9489 2.72159 69.2557 2.35227 69.8239H2.15341V68.0909H0.534091V83.0909ZM2.18182 73.5455C2.18182 71.1023 3.26136 69.4545 5.30682 69.4545C7.4375 69.4545 8.48864 71.2443 8.48864 73.5455C8.48864 75.875 7.40909 77.7216 5.30682 77.7216C3.28977 77.7216 2.18182 76.017 2.18182 73.5455ZM12.1216 79H13.7977V72.0966C13.7977 70.6193 14.9625 69.5398 16.5534 69.5398C17.0009 69.5398 17.4625 69.625 17.5761 69.6534V67.9489C17.3844 67.9347 16.944 67.9205 16.6955 67.9205C15.3886 67.9205 14.2523 68.6591 13.8545 69.7386H13.7409V68.0909H12.1216V79ZM23.0628 79.2273C26.0173 79.2273 28.006 76.983 28.006 73.6023C28.006 70.1932 26.0173 67.9489 23.0628 67.9489C20.1082 67.9489 18.1196 70.1932 18.1196 73.6023C18.1196 76.983 20.1082 79.2273 23.0628 79.2273ZM23.0628 77.7216C20.8185 77.7216 19.7957 75.7898 19.7957 73.6023C19.7957 71.4148 20.8185 69.4545 23.0628 69.4545C25.3071 69.4545 26.3298 71.4148 26.3298 73.6023C26.3298 75.7898 25.3071 77.7216 23.0628 77.7216ZM29.9646 83.0909H31.6407V77.3239H31.7827C32.1521 77.9205 32.8623 79.2273 34.9646 79.2273C37.6918 79.2273 39.5952 77.0398 39.5952 73.5739C39.5952 70.1364 37.6918 67.9489 34.9362 67.9489C32.8055 67.9489 32.1521 69.2557 31.7827 69.8239H31.5839V68.0909H29.9646V83.0909ZM31.6123 73.5455C31.6123 71.1023 32.6918 69.4545 34.7373 69.4545C36.868 69.4545 37.9191 71.2443 37.9191 73.5455C37.9191 75.875 36.8396 77.7216 34.7373 77.7216C32.7202 77.7216 31.6123 76.017 31.6123 73.5455ZM41.5521 79H43.2282V68.0909H41.5521V79ZM42.4043 66.2727C43.0577 66.2727 43.5975 65.7614 43.5975 65.1364C43.5975 64.5114 43.0577 64 42.4043 64C41.7509 64 41.2111 64.5114 41.2111 65.1364C41.2111 65.7614 41.7509 66.2727 42.4043 66.2727ZM48.9084 79.2557C50.8118 79.2557 51.8061 78.233 52.147 77.5227H52.2322V79H53.9084V71.8125C53.9084 68.3466 51.2663 67.9489 49.8743 67.9489C48.2266 67.9489 46.3516 68.517 45.4993 70.5057L47.0902 71.0739C47.4595 70.2784 48.3331 69.4261 49.9311 69.4261C51.4723 69.4261 52.2322 70.2429 52.2322 71.642V71.6989C52.2322 72.5085 51.4084 72.4375 49.4197 72.6932C47.3956 72.956 45.1868 73.4034 45.1868 75.9034C45.1868 78.0341 46.8345 79.2557 48.9084 79.2557ZM49.1641 77.75C47.8288 77.75 46.8629 77.1534 46.8629 75.9886C46.8629 74.7102 48.0277 74.3125 49.3345 74.142C50.0447 74.0568 51.9482 73.858 52.2322 73.517V75.0511C52.2322 76.4148 51.1527 77.75 49.1641 77.75ZM62.4722 83.0909C63.985 83.0909 65.0504 82.2884 65.6825 80.5909L70.3273 68.1193L68.495 68.0909L65.4836 76.7841H65.37L62.3586 68.0909H60.5404L64.5745 79.0568L64.262 79.9091C63.6512 81.571 62.8984 81.7273 61.6768 81.4148L61.2506 82.892C61.4211 82.9773 61.904 83.0909 62.4722 83.0909ZM81.4018 79.2273C83.8166 79.2273 85.4075 77.75 85.6916 75.8182H84.0155C83.703 77.0114 82.7087 77.7216 81.4018 77.7216C79.4132 77.7216 78.1348 76.0739 78.1348 73.5455C78.1348 71.0739 79.4416 69.4545 81.4018 69.4545C82.8791 69.4545 83.7598 70.3636 84.0155 71.358H85.6916C85.4075 69.3125 83.6746 67.9489 81.3734 67.9489C78.4189 67.9489 76.4587 70.2784 76.4587 73.6023C76.4587 76.8693 78.3337 79.2273 81.4018 79.2273ZM91.9737 79.2273C94.9283 79.2273 96.9169 76.983 96.9169 73.6023C96.9169 70.1932 94.9283 67.9489 91.9737 67.9489C89.0192 67.9489 87.0305 70.1932 87.0305 73.6023C87.0305 76.983 89.0192 79.2273 91.9737 79.2273ZM91.9737 77.7216C89.7294 77.7216 88.7067 75.7898 88.7067 73.6023C88.7067 71.4148 89.7294 69.4545 91.9737 69.4545C94.218 69.4545 95.2408 71.4148 95.2408 73.6023C95.2408 75.7898 94.218 77.7216 91.9737 77.7216ZM100.552 72.4375C100.552 70.5341 101.731 69.4545 103.336 69.4545C104.891 69.4545 105.836 70.4702 105.836 72.1818V79H107.512V72.0682C107.512 69.2841 106.027 67.9489 103.819 67.9489C102.171 67.9489 101.148 68.6875 100.637 69.7955H100.495V68.0909H98.8755V79H100.552V72.4375ZM116.676 64.4545H115V79H116.676V64.4545ZM123.578 79.2273C126.532 79.2273 128.521 76.983 128.521 73.6023C128.521 70.1932 126.532 67.9489 123.578 67.9489C120.623 67.9489 118.634 70.1932 118.634 73.6023C118.634 76.983 120.623 79.2273 123.578 79.2273ZM123.578 77.7216C121.333 77.7216 120.311 75.7898 120.311 73.6023C120.311 71.4148 121.333 69.4545 123.578 69.4545C125.822 69.4545 126.845 71.4148 126.845 73.6023C126.845 75.7898 125.822 77.7216 123.578 77.7216ZM138.207 70.5341C137.681 68.9858 136.502 67.9489 134.343 67.9489C132.042 67.9489 130.337 69.2557 130.337 71.1023C130.337 72.608 131.232 73.6165 133.235 74.0852L135.053 74.5114C136.154 74.767 136.673 75.2926 136.673 76.0455C136.673 76.983 135.678 77.75 134.116 77.75C132.745 77.75 131.886 77.1605 131.587 75.9886L129.996 76.3864C130.387 78.2401 131.914 79.2273 134.144 79.2273C136.68 79.2273 138.406 77.8423 138.406 75.9602C138.406 74.4403 137.454 73.4815 135.508 73.0057L133.888 72.608C132.596 72.2884 132.013 71.8551 132.013 71.017C132.013 70.0795 133.008 69.3977 134.343 69.3977C135.806 69.3977 136.41 70.2074 136.701 70.9602L138.207 70.5341ZM153.081 70.5341C152.555 68.9858 151.376 67.9489 149.217 67.9489C146.916 67.9489 145.212 69.2557 145.212 71.1023C145.212 72.608 146.106 73.6165 148.109 74.0852L149.927 74.5114C151.028 74.767 151.547 75.2926 151.547 76.0455C151.547 76.983 150.552 77.75 148.99 77.75C147.619 77.75 146.76 77.1605 146.462 75.9886L144.871 76.3864C145.261 78.2401 146.788 79.2273 149.018 79.2273C151.554 79.2273 153.28 77.8423 153.28 75.9602C153.28 74.4403 152.328 73.4815 150.382 73.0057L148.763 72.608C147.47 72.2884 146.888 71.8551 146.888 71.017C146.888 70.0795 147.882 69.3977 149.217 69.3977C150.68 69.3977 151.284 70.2074 151.575 70.9602L153.081 70.5341ZM158.413 79.2557C160.316 79.2557 161.311 78.233 161.652 77.5227H161.737V79H163.413V71.8125C163.413 68.3466 160.771 67.9489 159.379 67.9489C157.731 67.9489 155.856 68.517 155.004 70.5057L156.595 71.0739C156.964 70.2784 157.838 69.4261 159.436 69.4261C160.977 69.4261 161.737 70.2429 161.737 71.642V71.6989C161.737 72.5085 160.913 72.4375 158.924 72.6932C156.9 72.956 154.691 73.4034 154.691 75.9034C154.691 78.0341 156.339 79.2557 158.413 79.2557ZM158.669 77.75C157.334 77.75 156.368 77.1534 156.368 75.9886C156.368 74.7102 157.532 74.3125 158.839 74.142C159.549 74.0568 161.453 73.858 161.737 73.517V75.0511C161.737 76.4148 160.657 77.75 158.669 77.75ZM166.1 79H167.719V77.3239H167.918C168.287 77.9205 168.997 79.2273 171.1 79.2273C173.827 79.2273 175.73 77.0398 175.73 73.5739C175.73 70.1364 173.827 67.9489 171.071 67.9489C168.941 67.9489 168.287 69.2557 167.918 69.8239H167.776V64.4545H166.1V79ZM167.747 73.5455C167.747 71.1023 168.827 69.4545 170.872 69.4545C173.003 69.4545 174.054 71.2443 174.054 73.5455C174.054 75.875 172.975 77.7216 170.872 77.7216C168.855 77.7216 167.747 76.017 167.747 73.5455ZM182.126 79.2273C185.081 79.2273 187.069 76.983 187.069 73.6023C187.069 70.1932 185.081 67.9489 182.126 67.9489C179.172 67.9489 177.183 70.1932 177.183 73.6023C177.183 76.983 179.172 79.2273 182.126 79.2273ZM182.126 77.7216C179.882 77.7216 178.859 75.7898 178.859 73.6023C178.859 71.4148 179.882 69.4545 182.126 69.4545C184.37 69.4545 185.393 71.4148 185.393 73.6023C185.393 75.7898 184.37 77.7216 182.126 77.7216ZM189.028 79H190.704V72.0966C190.704 70.6193 191.869 69.5398 193.46 69.5398C193.907 69.5398 194.369 69.625 194.482 69.6534V67.9489C194.291 67.9347 193.85 67.9205 193.602 67.9205C192.295 67.9205 191.159 68.6591 190.761 69.7386H190.647V68.0909H189.028V79ZM200.111 79.2273C202.327 79.2273 203.946 78.1193 204.458 76.4716L202.838 76.017C202.412 77.1534 201.425 77.7216 200.111 77.7216C198.144 77.7216 196.787 76.4503 196.709 74.1136H204.628V73.4034C204.628 69.3409 202.213 67.9489 199.941 67.9489C196.986 67.9489 195.026 70.2784 195.026 73.6307C195.026 76.983 196.958 79.2273 200.111 79.2273ZM196.709 72.6648C196.823 70.9673 198.023 69.4545 199.941 69.4545C201.759 69.4545 202.924 70.8182 202.924 72.6648H196.709ZM214.305 70.5341C213.78 68.9858 212.601 67.9489 210.441 67.9489C208.14 67.9489 206.436 69.2557 206.436 71.1023C206.436 72.608 207.331 73.6165 209.334 74.0852L211.152 74.5114C212.253 74.767 212.771 75.2926 212.771 76.0455C212.771 76.983 211.777 77.75 210.214 77.75C208.843 77.75 207.984 77.1605 207.686 75.9886L206.095 76.3864C206.486 78.2401 208.012 79.2273 210.243 79.2273C212.778 79.2273 214.504 77.8423 214.504 75.9602C214.504 74.4403 213.552 73.4815 211.606 73.0057L209.987 72.608C208.694 72.2884 208.112 71.8551 208.112 71.017C208.112 70.0795 209.106 69.3977 210.441 69.3977C211.905 69.3977 212.508 70.2074 212.799 70.9602L214.305 70.5341ZM221.452 79H223.128V72.1818C223.128 70.5838 224.293 69.4545 225.6 69.4545C226.871 69.4545 227.759 70.2855 227.759 71.5284V79H229.463V71.8977C229.463 70.4915 230.344 69.4545 231.878 69.4545C233.071 69.4545 234.094 70.0866 234.094 71.6989V79H235.77V71.6989C235.77 69.1349 234.392 67.9489 232.446 67.9489C230.884 67.9489 229.74 68.6662 229.179 69.7955H229.066C228.526 68.6307 227.574 67.9489 226.14 67.9489C224.719 67.9489 223.668 68.6307 223.213 69.7955H223.071V68.0909H221.452V79ZM241.445 79.2557C243.349 79.2557 244.343 78.233 244.684 77.5227H244.769V79H246.445V71.8125C246.445 68.3466 243.803 67.9489 242.411 67.9489C240.763 67.9489 238.888 68.517 238.036 70.5057L239.627 71.0739C239.996 70.2784 240.87 69.4261 242.468 69.4261C244.009 69.4261 244.769 70.2429 244.769 71.642V71.6989C244.769 72.5085 243.945 72.4375 241.956 72.6932C239.932 72.956 237.724 73.4034 237.724 75.9034C237.724 78.0341 239.371 79.2557 241.445 79.2557ZM241.701 77.75C240.366 77.75 239.4 77.1534 239.4 75.9886C239.4 74.7102 240.564 74.3125 241.871 74.142C242.581 74.0568 244.485 73.858 244.769 73.517V75.0511C244.769 76.4148 243.689 77.75 241.701 77.75ZM241.758 66.6136H243.235L245.451 63.3182H243.491L241.758 66.6136ZM256.632 70.5341C256.106 68.9858 254.927 67.9489 252.768 67.9489C250.467 67.9489 248.762 69.2557 248.762 71.1023C248.762 72.608 249.657 73.6165 251.66 74.0852L253.478 74.5114C254.579 74.767 255.098 75.2926 255.098 76.0455C255.098 76.983 254.103 77.75 252.541 77.75C251.17 77.75 250.311 77.1605 250.012 75.9886L248.421 76.3864C248.812 78.2401 250.339 79.2273 252.569 79.2273C255.105 79.2273 256.831 77.8423 256.831 75.9602C256.831 74.4403 255.879 73.4815 253.933 73.0057L252.313 72.608C251.021 72.2884 250.438 71.8551 250.438 71.017C250.438 70.0795 251.433 69.3977 252.768 69.3977C254.231 69.3977 254.835 70.2074 255.126 70.9602L256.632 70.5341ZM268.637 68.0909H266.193V66.983C266.193 65.9034 266.648 65.3352 267.756 65.3352C268.239 65.3352 268.523 65.4489 268.693 65.5057L269.176 64.0568C268.921 63.9432 268.409 63.7727 267.585 63.7727C266.023 63.7727 264.517 64.7102 264.517 66.5852V68.0909H262.756V69.5114H264.517V79H266.193V69.5114H268.637V68.0909ZM270.386 79H272.062V72.0966C272.062 70.6193 273.227 69.5398 274.817 69.5398C275.265 69.5398 275.727 69.625 275.84 69.6534V67.9489C275.648 67.9347 275.208 67.9205 274.96 67.9205C273.653 67.9205 272.516 68.6591 272.119 69.7386H272.005V68.0909H270.386V79ZM281.469 79.2273C283.685 79.2273 285.304 78.1193 285.815 76.4716L284.196 76.017C283.77 77.1534 282.783 77.7216 281.469 77.7216C279.502 77.7216 278.145 76.4503 278.067 74.1136H285.986V73.4034C285.986 69.3409 283.571 67.9489 281.298 67.9489C278.344 67.9489 276.384 70.2784 276.384 73.6307C276.384 76.983 278.315 79.2273 281.469 79.2273ZM278.067 72.6648C278.181 70.9673 279.381 69.4545 281.298 69.4545C283.117 69.4545 284.281 70.8182 284.281 72.6648H278.067ZM295.663 70.5341C295.137 68.9858 293.958 67.9489 291.799 67.9489C289.498 67.9489 287.794 69.2557 287.794 71.1023C287.794 72.608 288.688 73.6165 290.691 74.0852L292.51 74.5114C293.61 74.767 294.129 75.2926 294.129 76.0455C294.129 76.983 293.135 77.75 291.572 77.75C290.201 77.75 289.342 77.1605 289.044 75.9886L287.453 76.3864C287.843 78.2401 289.37 79.2273 291.6 79.2273C294.136 79.2273 295.862 77.8423 295.862 75.9602C295.862 74.4403 294.91 73.4815 292.964 73.0057L291.345 72.608C290.052 72.2884 289.47 71.8551 289.47 71.017C289.47 70.0795 290.464 69.3977 291.799 69.3977C293.262 69.3977 293.866 70.2074 294.157 70.9602L295.663 70.5341ZM302.217 79.2273C304.631 79.2273 306.222 77.75 306.506 75.8182H304.83C304.518 77.0114 303.524 77.7216 302.217 77.7216C300.228 77.7216 298.95 76.0739 298.95 73.5455C298.95 71.0739 300.256 69.4545 302.217 69.4545C303.694 69.4545 304.575 70.3636 304.83 71.358H306.506C306.222 69.3125 304.489 67.9489 302.188 67.9489C299.234 67.9489 297.274 70.2784 297.274 73.6023C297.274 76.8693 299.149 79.2273 302.217 79.2273ZM312.789 79.2273C315.743 79.2273 317.732 76.983 317.732 73.6023C317.732 70.1932 315.743 67.9489 312.789 67.9489C309.834 67.9489 307.845 70.1932 307.845 73.6023C307.845 76.983 309.834 79.2273 312.789 79.2273ZM312.789 77.7216C310.544 77.7216 309.522 75.7898 309.522 73.6023C309.522 71.4148 310.544 69.4545 312.789 69.4545C315.033 69.4545 316.056 71.4148 316.056 73.6023C316.056 75.7898 315.033 77.7216 312.789 77.7216ZM327.418 70.5341C326.892 68.9858 325.713 67.9489 323.554 67.9489C321.253 67.9489 319.548 69.2557 319.548 71.1023C319.548 72.608 320.443 73.6165 322.446 74.0852L324.264 74.5114C325.365 74.767 325.884 75.2926 325.884 76.0455C325.884 76.983 324.889 77.75 323.327 77.75C321.956 77.75 321.097 77.1605 320.798 75.9886L319.207 76.3864C319.598 78.2401 321.125 79.2273 323.355 79.2273C325.891 79.2273 327.616 77.8423 327.616 75.9602C327.616 74.4403 326.665 73.4815 324.719 73.0057L323.099 72.608C321.807 72.2884 321.224 71.8551 321.224 71.017C321.224 70.0795 322.219 69.3977 323.554 69.3977C325.017 69.3977 325.621 70.2074 325.912 70.9602L327.418 70.5341ZM330.761 79.1136C331.464 79.1136 332.04 78.5384 332.04 77.8352C332.04 77.1321 331.464 76.5568 330.761 76.5568C330.058 76.5568 329.483 77.1321 329.483 77.8352C329.483 78.5384 330.058 79.1136 330.761 79.1136Z" fill="white" fill-opacity="0.8"/>
</svg>
